<svg class="svg-icon" style="width: 1em;height: 1em;vertical-align: middle;fill: currentColor;overflow: hidden;" viewBox="0 0 1024 1024" version="1.1" xmlns="http://www.w3.org/2000/svg"><path d="M512 885.2c-62 0-120.8-8.8-164.8-24.4-50.8-18.4-78-44.4-78-76 0-42.8 38.8-71.2 118-87.2 1.6-0.4 2.8-0.4 4-0.4 10.4 0 19.2 7.2 21.6 17.6 1.2 5.6 0 11.6-3.2 16.4-3.2 4.8-8 8-14 9.2-76.8 15.2-82.8 38-82.8 44.4 0 8.8 16 23.2 52 35.6 39.2 13.6 91.6 21.2 147.2 21.2 55.6 0 107.6-7.6 147.2-21.2 36-12.4 52-26.8 52-35.6 0-6.4-6-28.8-81.2-44-11.6-2.4-19.2-14-17.2-25.6 2-10 11.2-17.6 21.2-17.6 1.6 0 2.8 0 4.4 0.4 78 15.6 116 44 115.6 86.8 0 31.2-26.8 57.6-78 76-42.8 15.6-102.8 24.4-164 24.4z m0-96.8c-6.4 0-12.4-2.8-16.8-7.6-6.4-7.6-62-74.8-116-155.2-72.8-108.4-109.6-190.4-109.6-244.4 0-133.6 108.8-242.4 242.4-242.4 133.6 0 242.4 108.8 242.4 242.4 0 53.6-36.8 136-109.6 244.4-56.8 84.8-115.6 154.4-116 155.2-4.4 4.8-10.4 7.6-16.8 7.6z m0-606c-109.6 0-198.8 89.2-198.8 198.8 0 40.8 28 105.2 83.6 191.6 42 65.2 88.8 126 115.2 159.2 26.4-33.2 73.2-93.6 115.2-159.2 55.6-86.4 83.6-150.8 83.6-192 0.4-109.2-89.2-198.4-198.8-198.4z m3.2 283.6c-57.2 0-103.6-46.4-103.6-103.6 0-57.2 46.4-103.6 103.6-103.6 57.2 0 103.6 46.4 103.6 103.6 0 57.2-46.4 103.6-103.6 103.6z m0-163.2c-33.2 0-60 26.8-60 60s26.8 60 60 60 60-26.8 60-60-26.8-60-60-60z" fill="#707070" /></svg>